<?xml version="1.0" standalone="no"?>
<!DOCTYPE svg PUBLIC "-//W3C//DTD SVG 20010904//EN"
 "http://www.w3.org/TR/2001/REC-SVG-20010904/DTD/svg10.dtd">
<svg version="1.0" xmlns="http://www.w3.org/2000/svg"
 width="700.000000pt" height="700.000000pt" viewBox="0 0 700.000000 700.000000"
 preserveAspectRatio="xMidYMid meet">
<metadata>
Created by potrace 1.11, written by Peter Selinger 2001-2013
</metadata>
<g transform="translate(0.000000,700.000000) scale(0.100000,-0.100000)"
fill="#000000" stroke="none">
<path d="M3600 5690 c-433 -60 -825 -216 -1130 -449 -426 -325 -756 -861 -882
-1431 -42 -191 -58 -339 -58 -530 1 -322 63 -572 208 -827 l38 -68 -383 -484
c-212 -266 -383 -484 -381 -486 2 -1 73 6 158 16 85 10 632 72 1215 138 1228
140 1260 144 1423 177 438 90 838 301 1132 596 426 429 683 1042 707 1689 12
325 -38 587 -161 845 -75 156 -142 250 -270 379 -246 248 -547 384 -971 439
-162 22 -479 20 -645 -4z m430 -391 c395 -36 658 -175 839 -442 72 -106 137
-280 168 -447 28 -150 25 -494 -5 -663 -69 -383 -219 -746 -421 -1017 -252
-337 -630 -556 -1068 -620 -93 -13 -333 -13 -426 0 -420 61 -700 246 -862 570
-89 179 -124 330 -132 575 -4 141 -2 208 12 310 64 479 274 937 569 1244 356
369 812 538 1326 490z"/>
</g>
</svg>
